<svg xmlns="http://www.w3.org/2000/svg" width="58.999" height="59" viewBox="0 0 58.999 59">
  <path id="Sustracción_1" data-name="Sustracción 1" d="M30-1064.5a29.314,29.314,0,0,1-11.482-2.318,29.4,29.4,0,0,1-9.377-6.322,29.4,29.4,0,0,1-6.322-9.377A29.316,29.316,0,0,1,.5-1094a29.314,29.314,0,0,1,2.318-11.482,29.4,29.4,0,0,1,6.322-9.377,29.4,29.4,0,0,1,9.377-6.322A29.316,29.316,0,0,1,30-1123.5a29.318,29.318,0,0,1,11.483,2.318,29.4,29.4,0,0,1,9.377,6.322,29.4,29.4,0,0,1,6.322,9.377A29.314,29.314,0,0,1,59.5-1094a29.315,29.315,0,0,1-2.318,11.483,29.4,29.4,0,0,1-6.322,9.377,29.4,29.4,0,0,1-9.377,6.322A29.316,29.316,0,0,1,30-1064.5Zm-.257-49.5A19.278,19.278,0,0,0,10-1094.323a20.22,20.22,0,0,0,13.669,19.291,2.061,2.061,0,0,0,.346.033.975.975,0,0,0,1.049-1.009c0-.176,0-.638-.007-1.222-.007-1.111-.017-2.631-.017-3.73l-.012,0a11.429,11.429,0,0,1-2.06.191c-1.782,0-4.054-.451-4.759-2.6-.009-.023-.939-2.355-2.242-2.951-.009-.006-.886-.612-.774-.974.055-.178.34-.269.847-.269H16.1a4.285,4.285,0,0,1,3.113,2.081,3.929,3.929,0,0,0,3.552,2.227,5.769,5.769,0,0,0,2.327-.541,4.534,4.534,0,0,1,1.291-2.718c-2.526-.28-4.588-.587-6.219-1.734-1.91-1.342-2.838-3.69-2.838-7.178a6.122,6.122,0,0,1,1.9-4.75,7.622,7.622,0,0,1,.21-5.476,1.672,1.672,0,0,1,.494-.067c1.828,0,5.038,2.223,5.071,2.245a19.04,19.04,0,0,1,5.064-.686,19.041,19.041,0,0,1,5.064.686c.135-.093,3.279-2.247,5.065-2.247a1.668,1.668,0,0,1,.5.069,7.622,7.622,0,0,1,.21,5.476,6.292,6.292,0,0,1,2.081,4.749c0,3.488-.961,5.838-2.939,7.183-1.788,1.217-4.2,1.489-6.319,1.728a4.687,4.687,0,0,1,1.37,3.742c0,1.816-.01,3.921-.017,5.314v.008c0,.7-.006,1.2-.006,1.42a.975.975,0,0,0,1.051,1.008,1.941,1.941,0,0,0,.344-.033A20.1,20.1,0,0,0,50-1094.323C50-1105.357,41.1-1114,29.742-1114Zm-6.757,31.11-.058,0c-.231,0-.419.13-.419.291s.16.292.388.292l.064,0c.235,0,.419-.127.419-.29S23.21-1082.89,22.986-1082.89Zm1.517-.21c-.021,0-.044,0-.067,0-.245.059-.395.218-.372.4a.317.317,0,0,0,.345.225.566.566,0,0,0,.131-.015c.239-.057.395-.213.371-.371C24.89-1083,24.714-1083.1,24.5-1083.1Zm-3.268-.063a.369.369,0,0,0-.364.2.221.221,0,0,0,.022.186.477.477,0,0,0,.324.21.472.472,0,0,0,.171.031.329.329,0,0,0,.329-.193c.049-.162-.1-.346-.347-.419A.534.534,0,0,0,21.235-1083.163Zm-1.467-.885a.236.236,0,0,0-.188.081.206.206,0,0,0-.072.166.457.457,0,0,0,.177.334.5.5,0,0,0,.339.162.229.229,0,0,0,.184-.081.216.216,0,0,0,.056-.161.5.5,0,0,0-.16-.34A.482.482,0,0,0,19.768-1084.049ZM18.8-1085.2a.21.21,0,0,0-.134.046.206.206,0,0,0-.091.138.458.458,0,0,0,.091.338.469.469,0,0,0,.349.217.163.163,0,0,0,.1-.031.371.371,0,0,0,0-.5A.4.4,0,0,0,18.8-1085.2Zm-.818-1.041a.191.191,0,0,0-.138.055.171.171,0,0,0-.064.124.413.413,0,0,0,.121.3.418.418,0,0,0,.28.136.189.189,0,0,0,.139-.055.171.171,0,0,0,.064-.124.415.415,0,0,0-.12-.3A.423.423,0,0,0,17.977-1086.24Zm-.818-.68a.225.225,0,0,0-.192.081.152.152,0,0,0-.01.12.368.368,0,0,0,.2.194.314.314,0,0,0,.161.048.2.2,0,0,0,.185-.1.152.152,0,0,0,.01-.121.364.364,0,0,0-.2-.193A.536.536,0,0,0,17.16-1086.92Z" transform="translate(-0.5 1123.5)" fill="#fff"/>
</svg>
