<svg xmlns="http://www.w3.org/2000/svg" width="60.5" height="59.5" viewBox="0 0 60.5 59.5">
  <path id="Exclusión_1" data-name="Exclusión 1" d="M30.75-1064a30.5,30.5,0,0,1-11.775-2.338,30.179,30.179,0,0,1-9.615-6.376,29.627,29.627,0,0,1-6.483-9.456A29.142,29.142,0,0,1,.5-1093.75a29.143,29.143,0,0,1,2.377-11.58,29.63,29.63,0,0,1,6.483-9.456,30.181,30.181,0,0,1,9.615-6.376A30.5,30.5,0,0,1,30.75-1123.5a30.5,30.5,0,0,1,11.775,2.338,30.181,30.181,0,0,1,9.615,6.376,29.631,29.631,0,0,1,6.483,9.456A29.143,29.143,0,0,1,61-1093.75a29.142,29.142,0,0,1-2.377,11.58,29.627,29.627,0,0,1-6.483,9.456,30.179,30.179,0,0,1-9.615,6.376A30.5,30.5,0,0,1,30.75-1064Zm6.492-33.262c3.781,0,3.781,3.525,3.781,6.1v11.21h7.263v-12.65c0-5.69-1.055-10.956-8.712-10.956a7.7,7.7,0,0,0-6.88,3.719h-.1v-3.142H25.619v23.029h7.263v-11.4C32.882-1094.276,33.4-1097.262,37.242-1097.262Zm-23.449-5.721v23.029h7.271v-23.029Zm3.632-11.463a4.181,4.181,0,0,0-4.211,4.141,4.2,4.2,0,0,0,4.211,4.181,4.2,4.2,0,0,0,4.211-4.181A4.181,4.181,0,0,0,17.425-1114.445Z" transform="translate(-0.5 1123.5)" fill="#fff"/>
</svg>
