<svg xmlns="http://www.w3.org/2000/svg" width="60" height="60" viewBox="0 0 60 60">
  <path id="Sustracción_2" data-name="Sustracción 2" d="M30-1064a29.812,29.812,0,0,1-11.677-2.358,29.9,29.9,0,0,1-9.536-6.429,29.9,29.9,0,0,1-6.429-9.536A29.813,29.813,0,0,1,0-1094a29.811,29.811,0,0,1,2.358-11.677,29.9,29.9,0,0,1,6.429-9.536,29.9,29.9,0,0,1,9.536-6.429A29.812,29.812,0,0,1,30-1124a29.814,29.814,0,0,1,11.678,2.358,29.9,29.9,0,0,1,9.536,6.429,29.9,29.9,0,0,1,6.429,9.536A29.811,29.811,0,0,1,60-1094a29.813,29.813,0,0,1-2.358,11.678,29.9,29.9,0,0,1-6.429,9.536,29.9,29.9,0,0,1-9.536,6.429A29.814,29.814,0,0,1,30-1064Zm-20-17.436h0a23.225,23.225,0,0,0,12.589,3.679c14.6,0,23.324-11.859,23.324-23.324,0-.35,0-.711-.025-1.067A17.523,17.523,0,0,0,50-1106.385a16.4,16.4,0,0,1-4.721,1.268,8.16,8.16,0,0,0,3.6-4.517,16.232,16.232,0,0,1-5.2,1.979,8.234,8.234,0,0,0-5.99-2.588,8.207,8.207,0,0,0-8.2,8.2,9.252,9.252,0,0,0,.2,1.878,23.236,23.236,0,0,1-9.489-2.557,23.114,23.114,0,0,1-7.414-6.021,8.1,8.1,0,0,0-1.117,4.137,8.191,8.191,0,0,0,3.655,6.827,8.28,8.28,0,0,1-3.705-1.041v.1a8.233,8.233,0,0,0,6.574,8.046,8.621,8.621,0,0,1-2.157.279,10.206,10.206,0,0,1-1.548-.127,8.216,8.216,0,0,0,7.664,5.685,16.344,16.344,0,0,1-10.177,3.5A16.709,16.709,0,0,1,10-1081.436Z" transform="translate(0 1124)" fill="#fff"/>
</svg>
