<svg width="40" height="40" viewBox="0 0 40 40" fill="none" xmlns="http://www.w3.org/2000/svg">
<path d="M0 20C0 8.95431 8.95431 0 20 0V0C31.0457 0 40 8.95431 40 20V20C40 31.0457 31.0457 40 20 40V40C8.95431 40 0 31.0457 0 20V20Z" fill="white"/>
<path d="M27.4313 12.5237C25.3275 10.4087 22.5263 9.25 19.545 9.25C13.4025 9.25 8.39627 14.2562 8.39627 20.3987C8.39627 22.3675 8.91377 24.28 9.88127 25.9675L8.30627 31.75L14.2125 30.1975C15.8438 31.0863 17.6775 31.5587 19.545 31.5587C25.6875 31.5587 30.6938 26.5525 30.6938 20.41C30.6938 17.4287 29.535 14.6275 27.4313 12.5237ZM19.545 29.6687C17.88 29.6687 16.2488 29.2188 14.82 28.375L14.4825 28.1725L10.9725 29.095L11.9063 25.675L11.6813 25.3263C10.7588 23.8525 10.2638 22.1425 10.2638 20.3987C10.2638 15.2912 14.4263 11.1288 19.5338 11.1288C22.0088 11.1288 24.3375 12.0963 26.0813 13.8513C27.8363 15.6063 28.7925 17.935 28.7925 20.41C28.815 25.5175 24.6525 29.6687 19.545 29.6687ZM24.63 22.7387C24.3488 22.6037 22.9763 21.9288 22.7288 21.8275C22.47 21.7375 22.29 21.6925 22.0988 21.9625C21.9075 22.2438 21.3788 22.8738 21.2213 23.0538C21.0638 23.245 20.895 23.2675 20.6138 23.1212C20.3325 22.9862 19.4325 22.6825 18.375 21.7375C17.5425 20.995 16.9913 20.0838 16.8225 19.8025C16.665 19.5213 16.8 19.375 16.9463 19.2287C17.07 19.105 17.2275 18.9025 17.3625 18.745C17.4975 18.5875 17.5538 18.4637 17.6438 18.2837C17.7338 18.0925 17.6888 17.935 17.6213 17.8C17.5538 17.665 16.9913 16.2925 16.7663 15.73C16.5413 15.19 16.305 15.2575 16.1363 15.2462C15.9675 15.2462 15.7875 15.2462 15.5963 15.2462C15.405 15.2462 15.1125 15.3137 14.8538 15.595C14.6063 15.8762 13.8863 16.5513 13.8863 17.9238C13.8863 19.2963 14.8875 20.6238 15.0225 20.8038C15.1575 20.995 16.9913 23.8075 19.7813 25.0113C20.445 25.3038 20.9625 25.4725 21.3675 25.5963C22.0313 25.81 22.6388 25.7762 23.1225 25.7087C23.6625 25.63 24.7763 25.0337 25.0013 24.3812C25.2375 23.7287 25.2375 23.1775 25.1588 23.0538C25.08 22.93 24.9113 22.8737 24.63 22.7387Z" fill="#0E2F3E"/>
</svg>
